<?xml version="1.0" encoding="UTF-8" standalone="no"?>
<!-- Created with Inkscape (http://www.inkscape.org/) -->

<svg
   xmlns:dc="http://purl.org/dc/elements/1.1/"
   xmlns:cc="http://creativecommons.org/ns#"
   xmlns:rdf="http://www.w3.org/1999/02/22-rdf-syntax-ns#"
   xmlns:svg="http://www.w3.org/2000/svg"
   xmlns="http://www.w3.org/2000/svg"
   xmlns:sodipodi="http://sodipodi.sourceforge.net/DTD/sodipodi-0.dtd"
   xmlns:inkscape="http://www.inkscape.org/namespaces/inkscape"
   version="1.2"
   width="220.02975"
   height="43.728001"
   id="svg2"
   inkscape:version="0.48.4 r9939"
   sodipodi:docname="logo.svg">
  <sodipodi:namedview
     pagecolor="#ffffff"
     bordercolor="#666666"
     borderopacity="1"
     objecttolerance="10"
     gridtolerance="10"
     guidetolerance="10"
     inkscape:pageopacity="0"
     inkscape:pageshadow="2"
     inkscape:window-width="1366"
     inkscape:window-height="741"
     id="namedview3017"
     showgrid="false"
     inkscape:zoom="5.4583527"
     inkscape:cx="110.01488"
     inkscape:cy="21.864"
     inkscape:window-x="-1"
     inkscape:window-y="-1"
     inkscape:window-maximized="1"
     inkscape:current-layer="svg2" />
  <defs
     id="defs4" />
  <metadata
     id="metadata7">
    <rdf:RDF>
      <cc:Work
         rdf:about="">
        <dc:format>image/svg+xml</dc:format>
        <dc:type
           rdf:resource="http://purl.org/dc/dcmitype/StillImage" />
        <dc:title />
      </cc:Work>
    </rdf:RDF>
  </metadata>
  <flowRoot
     style="font-size:16px;font-style:normal;font-variant:normal;font-weight:normal;font-stretch:normal;line-height:125%;letter-spacing:0px;word-spacing:0px;fill:#000000;fill-opacity:1;stroke:none;font-family:Linux Biolinum O;-inkscape-font-specification:Linux Biolinum O"
     xml:space="preserve"
     id="flowRoot3054"
     transform="translate(-45.548561,-80.772375)"><flowRegion
       id="flowRegion3056"><rect
         id="rect3058"
         y="103.82894"
         x="129.55206"
         height="41.921329"
         width="84.852814" /></flowRegion><flowPara
       id="flowPara3060" /></flowRoot>  <path
     style="font-size:48px;font-style:normal;font-variant:normal;font-weight:normal;font-stretch:normal;line-height:125%;letter-spacing:0px;word-spacing:0px;fill:#000000;fill-opacity:1;stroke:none;font-family:Linux Biolinum O;-inkscape-font-specification:Linux Biolinum O"
     inkscape:connector-curvature="0"
     id="path3163"
     d="M 0,21.84 C 0,24 0.19201,35.08801 10.176,43.728 L 11.28,42.912 C 9.696001,41.088 3.984,34.46399 3.984,21.84 3.984,9.21602 9.744001,2.592 11.28,0.864 L 10.176,0 C 4.464006,4.896 0,12.91201 0,21.84" />
  <path
     style="font-size:48px;font-style:normal;font-variant:normal;font-weight:normal;font-stretch:normal;line-height:125%;letter-spacing:0px;word-spacing:0px;fill:#000000;fill-opacity:1;stroke:none;font-family:Linux Biolinum O;-inkscape-font-specification:Linux Biolinum O"
     inkscape:connector-curvature="0"
     id="path3179"
     d="m 174.6675,33.824 c 0.384,1.632 1.056,2.256 2.592,2.592 l 0.192,0 c 1.344,-0.336 2.064,-1.008 2.592,-2.592 l 0,-0.192 c -0.48,-1.344 -1.2,-2.064 -2.592,-2.592 l -0.192,0 c -1.488,0.624 -2.16,1.344 -2.592,2.592 l 0,0.192 m 12.72,0 c 0.384,1.632 1.056,2.256 2.592,2.592 l 0.192,0 c 1.344,-0.336 2.064,-1.008 2.592,-2.592 l 0,-0.192 c -0.48,-1.344 -1.2,-2.064 -2.592,-2.592 l -0.192,0 c -1.488,0.624 -2.16,1.344 -2.592,2.592 l 0,0.192 m 12.672,0 c 0.384,1.632 1.056,2.256 2.592,2.592 l 0.192,0 c 1.344,-0.336 2.064,-1.008 2.592,-2.592 l 0,-0.192 c -0.48,-1.344 -1.2,-2.064 -2.592,-2.592 l -0.192,0 c -1.488,0.624 -2.16,1.344 -2.592,2.592 l 0,0.192" />
  <path
     style="font-size:48px;font-style:normal;font-variant:normal;font-weight:normal;font-stretch:normal;line-height:125%;letter-spacing:0px;word-spacing:0px;fill:#000000;fill-opacity:1;stroke:none;font-family:Linux Biolinum O;-inkscape-font-specification:Linux Biolinum O"
     inkscape:connector-curvature="0"
     id="path3181"
     d="m 220.02975,0.192 -10.32,0 0,1.392 c 6.62399,0.528 7.056,1.24801 7.056,5.424 l 0,29.328 c 0,4.176 -0.48001,4.896 -7.056,5.376 l 0,1.44 10.32,0 0,-42.96" />
  <g
     transform="translate(-126.53551,-141.17359)"
     id="g3133">
    <g
       transform="matrix(0.56645133,0,0,0.82139354,63.674735,87.61559)"
       id="text3062-6-0"
       style="font-size:66.98499298px;font-style:normal;font-variant:normal;font-weight:normal;font-stretch:normal;line-height:125%;letter-spacing:0px;word-spacing:0px;fill:#000000;fill-opacity:1;stroke:none;font-family:Linux Biolinum O;-inkscape-font-specification:Linux Biolinum O">
      <path
         d="m 151.99428,66.731591 c -1.47367,0 -3.61719,1.272718 -3.61719,4.889904 0,4.688945 1.07176,7.033431 1.67462,12.928104 0.53588,5.224824 0.87081,11.25348 1.00478,12.660164 0.067,0.401909 0.20095,0.870805 0.93779,0.870805 0.66985,0 0.8708,-0.602866 0.93779,-1.3397 0.13397,-0.937789 0.20095,-4.956897 1.07176,-12.191269 0.66985,-5.760704 1.74161,-8.574083 1.74161,-12.928104 0,-3.349246 -1.94257,-4.889904 -3.75116,-4.889904 m -3.75116,41.128789 c 0.53588,2.27748 1.47367,3.14829 3.61719,3.61719 l 0.26794,0 c 1.87557,-0.4689 2.88035,-1.40669 3.61719,-3.61719 l 0,-0.26794 c -0.66985,-1.87558 -1.67463,-2.88036 -3.61719,-3.61719 l -0.26794,0 c -2.07654,0.8708 -3.01433,1.87558 -3.61719,3.61719 l 0,0.26794"
         id="path3067-1-7-20"
         inkscape:connector-curvature="0" />
    </g>
    <path
       d="m 149.39506,174.27979 c -2.6925,0 -6.15428,-2.35594 -7.64477,-5.19268 l -0.48081,0.0481 c -0.19232,1.73089 -0.7212,3.50987 -1.10584,4.95227 l 0.0962,0.14424 c 0,0 3.12522,2.16362 8.75062,2.16362 5.91388,0 10.48152,-3.60603 10.48152,-9.18335 0,-5.57731 -4.75997,-8.12558 -8.60639,-9.61607 -2.45209,-0.91352 -5.8658,-2.30785 -5.8658,-6.29852 0,-1.7309 0.96161,-3.65411 2.2117,-4.32724 0.81736,-0.43272 1.82705,-0.57696 2.9329,-0.57696 2.64441,0 5.24076,2.06746 6.53893,5.04844 l 0.4808,-0.0481 c 0.19232,-1.7309 0.67313,-3.36563 1.10585,-4.80804 l -0.0962,-0.14424 c 0,0 -2.01938,-2.16362 -7.64478,-2.16362 -1.29817,0 -2.74058,0.24041 -4.13491,0.81737 -2.83674,1.20201 -5.28884,3.99068 -5.28884,7.50054 0,5.04843 4.27915,7.40437 8.26982,9.08718 3.12522,1.29817 5.62541,2.88483 5.62541,6.97165 0,3.60603 -2.78867,5.62541 -5.62541,5.62541"
       id="path2994-9-6"
       style="font-size:64px;font-style:normal;font-variant:normal;font-weight:normal;font-stretch:normal;line-height:125%;letter-spacing:0px;word-spacing:0px;fill:#800000;fill-opacity:1;stroke:none;font-family:Linux Biolinum O;-inkscape-font-specification:Linux Biolinum O"
       inkscape:connector-curvature="0" />
    <path
       d="m 174.32775,156.67953 c 1.824,0 3.504,1.39201 4.8,3.552 l 0.624,-0.048 1.104,-3.936 -0.096,-0.144 c -1.488,-0.768 -3.984,-1.344 -6.384,-1.344 -4.99199,0 -10.224,4.08001 -10.224,10.608 0,6.72 3.79201,10.944 9.648,10.944 2.88,0 5.136,-0.96 7.056,-3.408 l -0.912,-1.008 -0.192,0 c -1.824,1.632 -3.36,2.016 -5.136,2.016 -3.50399,0 -6.24,-3.168 -6.24,-8.784 0,-5.27999 2.78401,-8.448 5.952,-8.448"
       id="path3903-2"
       style="font-size:48px;font-style:normal;font-variant:normal;font-weight:normal;font-stretch:normal;line-height:125%;letter-spacing:0px;word-spacing:0px;fill:#a02c2c;fill-opacity:1;stroke:none;font-family:Linux Biolinum O;-inkscape-font-specification:Linux Biolinum O"
       inkscape:connector-curvature="0" />
    <path
       d="m 197.83275,165.03153 -0.192,5.712 c 0,0.624 -0.288,0.96 -0.672,1.248 -1.344,1.008 -2.976,1.872 -4.416,1.872 -2.16,0 -3.552,-1.44 -3.552,-2.928 0,-2.15999 1.008,-3.792 4.752,-4.8 l 4.08,-1.104 m 0,8.496 c 0.528,1.92 1.968,2.784 3.744,2.784 1.2,0 2.688,-0.288 3.792,-1.488 l -0.336,-1.152 c -0.528,0.192 -0.96,0.24 -1.296,0.24 -0.48,0 -1.104,-0.096 -1.44,-0.336 -0.48,-0.48 -0.768,-1.632 -0.768,-3.744 0,-1.392 0.144,-6.72 0.144,-7.248 0,-6.47999 -4.272,-7.776 -7.92,-7.776 -3.648,0 -5.856,1.776 -7.056,2.784 l -0.144,0.192 0.816,3.216 0.624,0.048 c 1.344,-2.15999 2.976,-4.08 5.28,-4.08 1.728,0 4.608,0.24001 4.608,5.664 0,0.336 -0.192,0.528 -0.336,0.576 l -4.464,1.008 c -4.896,1.104 -7.968,3.69601 -7.968,6.96 0,3.552 2.448,5.184 6,5.184 2.64,0 3.984,-0.624 6.528,-2.784 l 0.192,-0.048"
       id="path3905-1"
       style="font-size:48px;font-style:normal;font-variant:normal;font-weight:normal;font-stretch:normal;line-height:125%;letter-spacing:0px;word-spacing:0px;fill:#a02c2c;fill-opacity:1;stroke:none;font-family:Linux Biolinum O;-inkscape-font-specification:Linux Biolinum O"
       inkscape:connector-curvature="0" />
    <path
       d="m 214.03125,159.79953 0,-4.368 c 0,-0.336 -0.096,-0.48 -0.288,-0.48 -1.104,0.24 -2.832,0.288 -3.888,0.144 l -0.096,0.144 c 0.336,2.112 0.432,5.71201 0.432,9.312 l 0,2.64 c 0,3.6 -0.096,6.09601 -0.432,8.64 l 0.096,0.144 c 0.576,-0.096 1.68,-0.144 2.256,-0.144 0.576,0 1.68,0.048 2.256,0.144 l 0.096,-0.144 c -0.384,-2.73599 -0.432,-4.992 -0.432,-8.64 l 0,-2.496 c 0,-2.01599 0.576,-3.168 1.632,-4.752 0.672,-1.056 1.776,-1.68 2.688,-1.68 0.96,0 1.872,0.096 2.496,0.672 l 0.384,-0.096 0.96,-3.552 -0.192,-0.192 c -0.816,-0.24 -0.864,-0.336 -1.728,-0.336 -2.592,0 -3.984,1.48801 -6.096,5.136 l -0.144,-0.096"
       id="path3907-3"
       style="font-size:48px;font-style:normal;font-variant:normal;font-weight:normal;font-stretch:normal;line-height:125%;letter-spacing:0px;word-spacing:0px;fill:#a02c2c;fill-opacity:1;stroke:none;font-family:Linux Biolinum O;-inkscape-font-specification:Linux Biolinum O"
       inkscape:connector-curvature="0" />
    <path
       d="m 227.39775,166.23153 c 0,3.6 -0.096,7.05601 -0.432,9.6 l 0.096,0.144 c 0.576,-0.096 1.68,-0.144 2.256,-0.144 0.576,0 1.68,0.048 2.256,0.144 l 0.096,-0.144 c -0.384,-2.73599 -0.432,-5.952 -0.432,-9.6 l 0,-14.4 c 0,-3.59999 0.192,-5.952 0.432,-9.024 0,-0.336 -0.144,-0.48 -0.432,-0.48 -1.248,0.48 -2.256,0.816 -4.176,0.96 l -0.096,0.144 c 0.336,2.064 0.432,5.61601 0.432,9.264 l 0,13.536"
       id="path3909-3"
       style="font-size:48px;font-style:normal;font-variant:normal;font-weight:normal;font-stretch:normal;line-height:125%;letter-spacing:0px;word-spacing:0px;fill:#800000;fill-opacity:1;stroke:none;font-family:Linux Biolinum O;-inkscape-font-specification:Linux Biolinum O"
       inkscape:connector-curvature="0" />
    <path
       d="m 241.17151,162.72753 c 0.816,-4.99199 4.368,-6.048 5.472,-6.048 1.728,0 4.032,1.77601 4.032,5.376 0,0.432 -0.192,0.672 -0.672,0.672 l -8.832,0 m 12.816,8.112 c -1.68,1.824 -3.936,2.64 -6.576,2.64 -1.68,0 -3.936,-0.624 -5.232,-2.736 -0.864,-1.344 -1.152,-3.264 -1.152,-6.096 l 13.056,0 c 0.528,0 0.864,-0.288 0.864,-0.816 0,-4.03199 -1.96801,-9.072 -8.304,-9.072 -4.56,0 -9.84001,3.98401 -9.84001,11.04 0,2.736 0.528,5.42401 2.16,7.344 1.63201,2.016 4.36801,3.168 7.63201,3.168 3.456,0 6.528,-1.776 8.352,-4.272 l -0.96,-1.2"
       id="path3911-6"
       style="font-size:48px;font-style:normal;font-variant:normal;font-weight:normal;font-stretch:normal;line-height:125%;letter-spacing:0px;word-spacing:0px;fill:#800000;fill-opacity:1;stroke:none;font-family:Linux Biolinum O;-inkscape-font-specification:Linux Biolinum O"
       inkscape:connector-curvature="0" />
    <path
       d="m 275.49751,157.35153 0,6.576 c 0,2.88 -0.144,6.336 -0.144,7.776 0,3.12 2.016,4.608 4.224,4.608 2.016,0 3.552,-0.48 5.568,-1.776 l -0.624,-1.152 c -1.44,0.528 -2.544,0.576 -3.744,0.384 -1.152,-0.192 -1.584,-1.344 -1.584,-3.936 0,-1.44 0.144,-3.504 0.144,-6.384 l 0,-6.048 1.824,0 c 1.152,0 2.784,0 3.456,0.096 0.144,-0.768 0.288,-1.296 0.576,-1.968 l -0.24,-0.336 c -0.672,0.048 -2.256,0.096 -3.36,0.096 l -2.256,0 c 0,-3.59999 0,-4.224 0.24,-7.008 0,-0.384 -0.144,-0.48 -0.432,-0.48 -1.248,0.48 -1.824,0.96 -3.36,1.2 l -0.096,0.144 c 0,1.824 -0.192,3.36001 -0.192,6.144 l -10.176,0 c 0,-3.59999 0,-4.224 0.24,-7.008 0,-0.384 -0.144,-0.48 -0.432,-0.48 -1.248,0.48 -1.824,0.96 -3.36,1.2 l -0.096,0.144 c 0,1.824 -0.192,3.36001 -0.192,6.144 -1.008,-0.048 -2.016,-0.048 -2.592,-0.096 -0.336,0.768 -0.624,1.248 -1.056,1.968 l 0.24,0.336 c 0.816,-0.096 2.304,-0.096 3.408,-0.096 l 0,7.392 c 0,2.88 -0.144,6.336 -0.144,7.776 0,2.256 1.536,3.792 3.744,3.792 2.016,0 3.696,-0.672 5.568,-2.4 l -0.624,-1.344 c -1.248,0.72 -2.016,0.864 -3.264,0.864 -1.296,0 -1.584,-1.008 -1.584,-2.976 0,-1.44 0.144,-3.36 0.144,-6.24 l 0,-6.864 10.176,-0.048"
       id="path3913-6"
       style="font-size:48px;font-style:normal;font-variant:normal;font-weight:normal;font-stretch:normal;line-height:125%;letter-spacing:0px;word-spacing:0px;fill:#800000;fill-opacity:1;stroke:none;font-family:Linux Biolinum O;-inkscape-font-specification:Linux Biolinum O"
       inkscape:connector-curvature="0" />
    <path
       d="m 150.53475,144.27384 c -0.82528,0 -1.70128,0.0935 -2.59375,0.3125 -0.12293,0.51053 -0.21875,1.11382 -0.21875,1.84375 0,0.1203 -0.001,0.22706 0,0.34375 0.7184,-0.26585 1.54188,-0.375 2.4375,-0.375 0.58656,0 1.18182,0.12166 1.75,0.3125 8.6e-4,-0.094 0,-0.18551 0,-0.28125 0,-0.85744 -0.10307,-1.54952 -0.28125,-2.125 -0.34335,-0.0179 -0.71882,-0.0312 -1.09375,-0.0312 z m -1.90625,12.34375 c 0.0124,0.16074 0.0194,0.26998 0.0312,0.4375 0.10489,1.48296 0.1723,2.9495 0.25,4.40625 0.16407,0.0713 0.33659,0.14984 0.5,0.21875 0.39963,0.166 0.78099,0.31994 1.15625,0.5 0.0742,-1.29098 0.16753,-2.78982 0.3125,-4.59375 -0.70756,-0.2636 -1.48741,-0.57425 -2.25,-0.96875 z m 2.40625,17.40625 c -0.53364,0.15312 -1.06674,0.25 -1.625,0.25 -0.32679,0 -0.68668,-0.0277 -1.03125,-0.0937 -0.34329,0.48574 -0.54145,1.06978 -0.71875,1.8125 l 0,0.21875 c 0.008,0.0496 0.0229,0.077 0.0312,0.125 0.4337,0.0275 0.84372,0.0625 1.3125,0.0625 1.01585,0 1.98618,-0.10799 2.90625,-0.3125 l 0,-0.0937 c -0.20715,-0.84108 -0.49918,-1.47348 -0.875,-1.96875 z"
       id="path3067-1-7-2-0"
       style="font-size:66.98499298px;font-style:normal;font-variant:normal;font-weight:normal;font-stretch:normal;line-height:125%;letter-spacing:0px;word-spacing:0px;fill:#a02c2c;fill-opacity:1;stroke:none;font-family:Linux Biolinum O;-inkscape-font-specification:Linux Biolinum O"
       inkscape:connector-curvature="0" />
    <path
       d="m 150.53475,144.27384 c -0.82528,0 -1.70128,0.0935 -2.59375,0.3125 -0.12293,0.51053 -0.21875,1.11382 -0.21875,1.84375 0,0.1203 -0.001,0.22706 0,0.34375 0.7184,-0.26585 1.54188,-0.375 2.4375,-0.375 0.58656,0 1.18182,0.12166 1.75,0.3125 8.6e-4,-0.094 0,-0.18551 0,-0.28125 0,-0.85744 -0.10307,-1.54952 -0.28125,-2.125 -0.34335,-0.0179 -0.71882,-0.0312 -1.09375,-0.0312 z m -1.90625,12.34375 c 0.0124,0.16074 0.0194,0.26998 0.0312,0.4375 0.10489,1.48296 0.1723,2.9495 0.25,4.40625 0.16407,0.0713 0.33659,0.14984 0.5,0.21875 0.39963,0.166 0.78099,0.31994 1.15625,0.5 0.0742,-1.29098 0.16753,-2.78982 0.3125,-4.59375 -0.70756,-0.2636 -1.48741,-0.57425 -2.25,-0.96875 z m 2.40625,17.40625 c -0.53364,0.15312 -1.06674,0.25 -1.625,0.25 -0.32679,0 -0.68668,-0.0277 -1.03125,-0.0937 -0.34329,0.48574 -0.54145,1.06978 -0.71875,1.8125 l 0,0.21875 c 0.008,0.0496 0.0229,0.077 0.0312,0.125 0.4337,0.0275 0.84372,0.0625 1.3125,0.0625 1.01585,0 1.98618,-0.10799 2.90625,-0.3125 l 0,-0.0937 c -0.20715,-0.84108 -0.49918,-1.47348 -0.875,-1.96875 z"
       id="path3067-1-7-2-6-6"
       style="font-size:66.98499298px;font-style:normal;font-variant:normal;font-weight:normal;font-stretch:normal;line-height:125%;letter-spacing:0px;word-spacing:0px;fill:#a02c2c;fill-opacity:1;stroke:none;font-family:Linux Biolinum O;-inkscape-font-specification:Linux Biolinum O"
       inkscape:connector-curvature="0" />
  </g>
</svg>
